# xmcd CD database file
#
# Track frame offsets:
#	150
#	21157
#	38683
#	56690
#	77733
#	91635
#	118055
#	135335
#	149416
#	166119
#	183506
#	202801
#
# Disc length: 2908 seconds
#
# Revision: 0
# Processed by: cddbd v1.5.2PL0 Copyright (c) Steve Scherf et al.
# Submitted via: CDex 1.51
#
DISCID=930b5a0c
DTITLE=Tarwater - From The Heart
DYEAR=2007
DGENRE=Country
TTITLE0=Slow Night
TTITLE1=Drinkin's Bad Enough
TTITLE2=Swing Thing
TTITLE3=Start My Life Anew
TTITLE4=Heebie Jeebie Blues
TTITLE5=I Got The Love
TTITLE6=Keep The Left Door Closed
TTITLE7=I'm Crazy
TTITLE8=Country Music
TTITLE9=Smoke! Smoke! Smoke! (That Cigarette)
TTITLE10=Boppin' The Blues
TTITLE11=Tennessee Waltz
EXTD=YEAR: 2007
EXTT0=
EXTT1=
EXTT2=
EXTT3=
EXTT4=
EXTT5=
EXTT6=
EXTT7=
EXTT8=
EXTT9=
EXTT10=
EXTT11=
PLAYORDER=
